<?xml version="1.0" encoding="utf-8"?>
<!-- Generator: Adobe Illustrator 14.0.0, SVG Export Plug-In . SVG Version: 6.00 Build 43363)  -->
<!DOCTYPE svg PUBLIC "-//W3C//DTD SVG 1.1//EN" "http://www.w3.org/Graphics/SVG/1.1/DTD/svg11.dtd">
<svg version="1.1" id="Layer_1" xmlns="http://www.w3.org/2000/svg" xmlns:xlink="http://www.w3.org/1999/xlink" x="0px" y="0px"
     style="width: 100%; height: 15%" width="555.85px" height="61.35px" viewBox="0 0 555.85 61.35" xml:space="preserve">
<g id="logo">
    
    <linearGradient id="green_gradient" x1="0%" y1="0%" x2="0%" y2="100%">
        <stop  offset="0" style="stop-color:#33BB77"/>
        <stop  offset="1" style="stop-color:#FFFFFF"/>
    </linearGradient>

    <path fill="url(#green_gradient)" d="M555.875,37.726V-0.175H0.025v37.901H555.875"/>
	<path fill="#00FFFF" d="M292.575,29.575c-1.4-3.399-3.45-6.066-6.15-8c-2.732-2.033-5.55-3.051-8.449-3.051
		c-2.934,0-5.733,0.983-8.4,2.95c-2.7,1.899-4.75,4.566-6.15,8c-1.433,3.435-2.149,6.899-2.149,10.399c0,3.467,0.717,6.801,2.149,10
		c1.367,3.201,3.4,5.717,6.101,7.551c2.667,1.834,5.482,2.75,8.45,2.75c2.934,0,5.767-0.916,8.5-2.75
		c2.667-1.9,4.699-4.416,6.101-7.551c1.399-3.267,2.101-6.582,2.101-9.949C294.675,36.359,293.975,32.909,292.575,29.575
		 M277.975,27.325c3.3,0,5.949,1.601,7.949,4.799c1.533,2.399,2.301,5.035,2.301,7.899c0,2.769-0.983,5.351-2.95,7.75
		c-2.033,2.367-4.467,3.566-7.3,3.601c-2.867-0.033-5.301-1.232-7.301-3.601c-2-2.399-2.982-4.981-2.949-7.75
		c-0.033-3.364,0.949-6.299,2.949-8.799C272.608,28.625,275.042,27.325,277.975,27.325"/>
	<path fill="none" d="M292.575,29.575"/>
	<path fill="#FF9900" d="M176.725,29.575c-1.4-3.399-3.467-6.066-6.2-8c-2.733-2.033-5.55-3.051-8.45-3.051s-5.683,0.983-8.35,2.95
		c-2.7,1.899-4.768,4.566-6.2,8c-1.435,3.435-2.15,6.899-2.15,10.399c0,3.467,0.716,6.801,2.15,10
		c1.399,3.201,3.433,5.717,6.1,7.551s5.483,2.75,8.45,2.75s5.817-0.916,8.55-2.75c2.667-1.9,4.7-4.416,6.101-7.551
		c1.366-3.267,2.05-6.582,2.05-9.949C178.775,36.359,178.091,32.909,176.725,29.575 M170.075,32.124
		c1.5,2.399,2.25,5.035,2.25,7.899c0,2.769-0.983,5.351-2.95,7.75c-2,2.367-4.434,3.566-7.3,3.601c-2.867-0.033-5.3-1.232-7.3-3.601
		c-1.967-2.399-2.95-4.981-2.95-7.75c0-3.364,0.983-6.299,2.95-8.799c1.967-2.601,4.399-3.901,7.3-3.901
		C165.375,27.325,168.042,28.926,170.075,32.124"/>
	<path fill="#0000FF" d="M182.675,23.775v21.5c-3.833,0.802-4.75,3.25-2.75,7.351c0.268,0.5,0.65,0.75,1.15,0.75
		c3.367,1.102,6.6,1.168,9.7,0.201c2-0.867,2.633-2.685,1.899-5.451c-0.6-2.101-1.782-3.049-3.55-2.851V27.426l5.4-4.7l1.1,0.75
		l0.55,2.75v27.899c3.468,0.899,6.518,0.285,9.15-1.851c1.167-0.934,1.467-2.315,0.9-4.149c-0.7-2.101-1.917-3.049-3.65-2.851
		V27.426l6.45-4.051l0.55,2.851v27.899c3.467,0.899,6.533,0.285,9.2-1.851c1.133-0.934,1.417-2.315,0.85-4.149
		c-0.667-2.101-1.867-3.049-3.6-2.851v-19.75c-0.768-8.532-4.233-12.134-10.4-10.8c-1.967,0.2-3.717,1.149-5.25,2.851l-11.25-0.051
		v-2.6c-3.367-0.934-6.434-0.317-9.2,1.85c-1.199,1.101-1.482,2.533-0.85,4.301C179.775,23.042,180.975,23.942,182.675,23.775"/>
	<path fill="#3366FF" d="M309.575,58.374l0.3-0.398c0.7-1,1.05-2.168,1.05-3.5c0-1.533-0.449-2.834-1.35-3.899
		c-0.867-1.066-1.917-1.601-3.15-1.601c-1.232,0-2.3,0.533-3.199,1.601c-0.866,1.065-1.301,2.366-1.301,3.899
		c0,1.332,0.334,2.5,1,3.5l0.301,0.398c0.899,1.067,1.967,1.602,3.199,1.602C307.658,59.976,308.708,59.443,309.575,58.374"/>
	<path fill="none" d="M309.575,58.374"/>
	<path fill="#FF0000" d="M116.425,24.575l0.2-9.2h11.851l-19.65,34.601v8.851h29.35l-1.899-21l-4.3,2.948l-0.25,9.201h-14.65
		l19.75-34.75V6.576l-26.7-0.101l2.601,21.149L116.425,24.575"/>
	<path fill="none" d="M116.425,24.575"/>
	<path fill="#9900FF" d="M220.875,3.725l-0.1,6.399l2.8,1.601l-2.95,45.399l10.55-0.449l2.25,1.6l2.351,1.101l2.5,0.701
		c1.967,0,3.933-0.269,5.899-0.802c1.033,0.033,2.067-0.184,3.101-0.649l2.05-1.299l0.9-0.802l2-2.299l1.8-3.051l1.399-3.4l0.7-2.6
		l0.4-2.85c0.065-1.033,0.083-2.066,0.05-3.101l-0.25-3.25l-0.55-2.852l-0.95-2.85l-1.55-3.55l-0.45-0.95l-1.9-2.1l-1.199-1.4
		l-2.65-1.899l-1.35-0.851l-3.95-0.899h-2.101l-2.399,0.551l-2.45,1.199l-1.2,0.699l-2.45,1.65V2.875L220.875,3.725 M234.375,30.575
		c1.8-2.468,3.966-3.7,6.5-3.7c2.533,0,4.7,1.232,6.5,3.7c1.8,2.434,2.7,5.367,2.7,8.799c0,3.434-0.9,6.385-2.7,8.852
		s-3.967,3.699-6.5,3.699c-2.534,0-4.7-1.232-6.5-3.699s-2.7-5.418-2.7-8.852C231.675,35.943,232.575,33.009,234.375,30.575"/>
	<path fill="none" d="M220.875,3.725"/>
</g>
<path fill="#00FF00" d="M345.732,34.452L345.314,50.7c0,0-0.436,8.111,0.064,8.111c3.4,1.1,6.65,1.168,9.75,0.201
	c2-0.867,2.617-2.668,1.85-5.4c-0.6-2.1-1.783-3.051-3.549-2.85l-0.053-15.127L345.732,34.452z"/>
<path fill="#00FF00" d="M353.24,30.903l0.291-0.388c0.686-0.976,1.025-2.115,1.025-3.414c0-1.495-0.439-2.764-1.316-3.803
	c-0.846-1.04-1.871-1.561-3.072-1.561c-1.203,0-2.244,0.52-3.121,1.561c-0.846,1.04-1.268,2.309-1.268,3.803
	c0,1.299,0.324,2.438,0.975,3.414l0.293,0.388c0.877,1.042,1.918,1.563,3.121,1.563C351.369,32.466,352.394,31.947,353.24,30.903"/>
<path fill="#FF9900" d="M321.399,58.995l0.742-24.4h-6.008v-6.909h6.008c0,0-2.254-21.501,6.863-23.663
	c19.747-4.681,18.132,13.73,18.132,13.73l-5.828,1.954c0,0,1.885-11.442-7.598-11.059c-6.724,0.272-3.39,19.037-3.39,19.037h5.978
	l1.666,6.909h-7.534l1.354,19.607l2.487,4.096L321.399,58.995z"/>
</svg>
